<?xml version="1.0" standalone="no"?>
<!DOCTYPE svg PUBLIC "-//W3C//DTD SVG 20010904//EN"
 "http://www.w3.org/TR/2001/REC-SVG-20010904/DTD/svg10.dtd">
<svg version="1.0" xmlns="http://www.w3.org/2000/svg"
 width="500.000000pt" height="500.000000pt" viewBox="0 0 500.000000 500.000000"
 preserveAspectRatio="xMidYMid meet">
<metadata>
Created by potrace 1.11, written by Peter Selinger 2001-2013
</metadata>
<g transform="translate(0.000000,500.000000) scale(0.100000,-0.100000)"
fill="#000000" stroke="none">
<path d="M790 2499 l0 -1100 673 4 672 3 121 27 c357 78 630 239 800 469 48
66 113 186 133 251 l13 37 424 0 424 0 0 210 0 210 -403 0 -403 0 -13 75 c-25
151 -99 319 -191 433 -28 34 -50 63 -50 65 0 1 273 2 607 2 l608 0 3 208 2
207 -1710 0 -1710 0 0 -1101z m1282 653 c236 -56 403 -172 492 -342 56 -107
70 -169 70 -310 0 -141 -14 -203 -70 -310 -89 -170 -256 -286 -492 -342 -74
-17 -133 -21 -384 -25 l-298 -5 0 682 0 682 298 -5 c253 -4 310 -8 384 -25z"/>
<path d="M3091 1794 c-52 -76 -224 -215 -338 -273 -42 -21 -43 -23 -43 -71 l0
-50 210 0 210 0 0 215 c0 118 -3 215 -7 215 -5 0 -19 -16 -32 -36z"/>
</g>
</svg>
